<svg id="OBJECT" xmlns="http://www.w3.org/2000/svg" xmlns:xlink="http://www.w3.org/1999/xlink" viewBox="0 0 750 500"><defs><style>.cls-1{fill:none;}.cls-2{clip-path:url(#clip-path);}.cls-3{fill:url(#linear-gradient);}.cls-4{fill:#fff;}.cls-5{fill:url(#linear-gradient-2);}.cls-6{fill:#ccc;}.cls-7{fill:#e6e6e6;}</style><clipPath id="clip-path"><path class="cls-1" d="M-20,500H-770V0H-20Z"/></clipPath><linearGradient id="linear-gradient" x1="-311.47" y1="308.05" x2="20.53" y2="308.05" gradientUnits="userSpaceOnUse"><stop offset="0" stop-color="#1d5063"/><stop offset="0.92" stop-color="#7f9995"/></linearGradient><linearGradient id="linear-gradient-2" x1="-78.1" y1="435.22" x2="-277.43" y2="133.22" gradientUnits="userSpaceOnUse"><stop offset="0.01" stop-color="#fff"/><stop offset="1" stop-color="#c0daca"/></linearGradient></defs><g class="cls-2"><path class="cls-3" d="M-311.47,360.5A41.5,41.5,0,0,1-270,319a41.65,41.65,0,0,1,12.75,2c-.16-1.64-.25-3.31-.25-5a50,50,0,0,1,50-50,49.68,49.68,0,0,1,28.88,9.2,39.39,39.39,0,0,1,9.79-18.68A19.92,19.92,0,0,1-172.47,245,20,20,0,0,1-155,225.18a39.35,39.35,0,0,1-.42-5.68A38.5,38.5,0,0,1-117,181a38.2,38.2,0,0,1,6.73.6A20.48,20.48,0,0,1-90,164a20.34,20.34,0,0,1,7.22,1.33,42.47,42.47,0,0,1,3.69-3.14,33.66,33.66,0,0,1-11.48-25.35,33.75,33.75,0,0,1,33.75-33.75A33.75,33.75,0,0,1-23,136.84c0,1.15-.06,2.28-.17,3.39A27,27,0,0,1-13.47,161a26.88,26.88,0,0,1-4.61,15.1A40.87,40.87,0,0,1-13.47,195a41,41,0,0,1-2.34,13.67A72.43,72.43,0,0,1,20.53,271.5a72.41,72.41,0,0,1-31.42,59.73A86,86,0,0,1,4.53,380.5a86.49,86.49,0,0,1-76.16,85.86A67,67,0,0,1-135.47,513a66.87,66.87,0,0,1-54.09-27.49A65.13,65.13,0,0,1-220,493a65.51,65.51,0,0,1-65.5-65.5,65.12,65.12,0,0,1,5.69-26.68A41.51,41.51,0,0,1-311.47,360.5Z"/><path class="cls-4" d="M60.2,358.33A59.35,59.35,0,0,0,16,301a50.43,50.43,0,0,0,8.87-28.63A50.67,50.67,0,0,0-25.8,221.67c-.69,0-1.38,0-2.07.05,0-.46.07-.92.07-1.39a14,14,0,0,0-14-14,14,14,0,0,0-14,14,13.88,13.88,0,0,0,3.26,9A50.76,50.76,0,0,0-73.9,256.42c-.63-.05-1.26-.09-1.9-.09a23.33,23.33,0,0,0-23.33,23.34c0,.72,0,1.44.1,2.15a64.88,64.88,0,0,0-13.17,2.26,21,21,0,0,0,.73-5.41,21,21,0,0,0-21-21h0A14.49,14.49,0,0,0-147,244a14.5,14.5,0,0,0-14.5,14.5,14.42,14.42,0,0,0,2.78,8.51,19,19,0,0,0-18.78,19,19,19,0,0,0,19,19c.35,0,.68,0,1-.05a25.43,25.43,0,0,0-8,18.55,25.46,25.46,0,0,0,6.59,17.11c0,.4-.08.81-.1,1.22a18.67,18.67,0,0,0-8.23,11.24,27.21,27.21,0,0,0-11.92-2.74,27.34,27.34,0,0,0-27.34,27.34,27.18,27.18,0,0,0,4.12,14.42c-.61,1.7-1.15,3.43-1.6,5.19a30.3,30.3,0,0,0-24.85-12.95,30.18,30.18,0,0,0-18.76,6.51A29.31,29.31,0,0,0-272.47,377a29.33,29.33,0,0,0-29.33,29.33,29.34,29.34,0,0,0,29.33,29.34A29.17,29.17,0,0,0-255,429.91l.09.15a57.43,57.43,0,0,0-11.54,34.61,57.67,57.67,0,0,0,57.67,57.66c.78,0,1.56,0,2.33-.06a76,76,0,0,0,75.34,66.06,76,76,0,0,0,66.45-39.12,90.05,90.05,0,0,0,23.55,3.12,90,90,0,0,0,90-90,89.58,89.58,0,0,0-17.39-53.17A59.28,59.28,0,0,0,60.2,358.33Z"/><path class="cls-5" d="M72.87,378.5a59.37,59.37,0,0,0-44.2-57.38,50.39,50.39,0,0,0,8.86-28.62,50.66,50.66,0,0,0-50.66-50.66c-.7,0-1.39,0-2.07,0,0-.46.07-.92.07-1.39a14,14,0,0,0-14-14,14,14,0,0,0-14,14,13.93,13.93,0,0,0,3.25,9,50.79,50.79,0,0,0-21.35,27.12c-.63-.06-1.26-.09-1.9-.09a23.34,23.34,0,0,0-23.34,23.34c0,.72,0,1.44.11,2.15a64.33,64.33,0,0,0-60,60,18.65,18.65,0,0,0-8.22,11.24,27.22,27.22,0,0,0-11.93-2.74,27.34,27.34,0,0,0-27.33,27.34,27.18,27.18,0,0,0,4.12,14.42c-.61,1.7-1.15,3.43-1.6,5.19a30.29,30.29,0,0,0-24.85-12.95A30.18,30.18,0,0,0-234.89,411a29.31,29.31,0,0,0-24.91-13.84,29.33,29.33,0,0,0-29.33,29.33,29.34,29.34,0,0,0,29.33,29.34,29.17,29.17,0,0,0,17.45-5.76l.08.15a57.42,57.42,0,0,0-11.53,34.61,57.67,57.67,0,0,0,57.67,57.66c.78,0,1.56,0,2.33-.06a76,76,0,0,0,75.33,66.06A76,76,0,0,0-52,569.38a90.11,90.11,0,0,0,23.55,3.12,90,90,0,0,0,90-90,89.57,89.57,0,0,0-17.38-53.17A59.3,59.3,0,0,0,72.87,378.5Z"/><path class="cls-4" d="M87.87,407.5a59.37,59.37,0,0,0-44.2-57.38,50.39,50.39,0,0,0,8.86-28.62A50.66,50.66,0,0,0,1.87,270.84c-.7,0-1.39,0-2.07.05,0-.46.07-.92.07-1.39a14,14,0,0,0-14-14,14,14,0,0,0-14,14,13.93,13.93,0,0,0,3.25,9,50.79,50.79,0,0,0-21.35,27.12c-.63-.06-1.26-.09-1.9-.09a23.34,23.34,0,0,0-23.34,23.34c0,.72,0,1.44.11,2.15a64.33,64.33,0,0,0-60,60,18.65,18.65,0,0,0-8.22,11.24,27.22,27.22,0,0,0-11.93-2.74,27.34,27.34,0,0,0-27.33,27.34,27.18,27.18,0,0,0,4.12,14.42c-.61,1.7-1.15,3.43-1.6,5.19a30.29,30.29,0,0,0-24.85-12.95A30.18,30.18,0,0,0-219.89,440a29.31,29.31,0,0,0-24.91-13.84,29.33,29.33,0,0,0-29.33,29.33,29.34,29.34,0,0,0,29.33,29.34,29.17,29.17,0,0,0,17.45-5.76l.08.15a57.42,57.42,0,0,0-11.53,34.61,57.67,57.67,0,0,0,57.67,57.66c.78,0,1.56,0,2.33-.06a76,76,0,0,0,75.33,66.06A76,76,0,0,0-37,598.38a90.11,90.11,0,0,0,23.55,3.12,90,90,0,0,0,90-90,89.57,89.57,0,0,0-17.38-53.17A59.3,59.3,0,0,0,87.87,407.5Z"/></g><path class="cls-6" d="M471.74,140.36s-60.12-32.67-88.06,28.21c0,0-74.49-26.73-86.91,19.31,0,0-56.45-38.43-70.42,29,0,0-53-32.86-75.08,15.59,0,0-55.87-35.64-69.25,30.63s75.66,35.48,75.66,35.48,79.15,95.95,162.37,10.19c0,0,76.24,77.41,132.11-4.46,0,0,8.15,22.84,33.18,6.69,0,0,18.62,13,26.77-12.42,0,0,51.21,46.39,79.73-14.87,0,0,58.78,26.73,83.22-34.53s-48.3-60.7-48.3-60.7-8.73-66.83-66.35-40.66C560.41,147.78,511.1,87.82,471.74,140.36Z"/><path class="cls-7" d="M477.56,169.87s-60.12-32.67-88.06,28.22c0,0-74.49-26.73-86.91,19.31,0,0-56.45-38.43-70.42,28.95,0,0-53-32.85-75.08,15.6,0,0-55.87-35.64-69.25,30.63s75.66,35.48,75.66,35.48S242.65,424,325.87,338.24c0,0,76.24,77.41,132.11-4.45,0,0,8.15,22.83,33.18,6.68,0,0,18.62,13,26.77-12.41,0,0,51.21,46.38,79.73-14.88,0,0,58.78,26.73,83.22-34.52S632.58,218,632.58,218s-8.73-66.83-66.35-40.65C566.23,177.3,516.92,117.34,477.56,169.87Z"/></svg>