<svg xmlns="http://www.w3.org/2000/svg" viewBox="0 0 2200 2200"><defs><style>.cls-1{fill:#168ac4;}.cls-2{fill:#147ca5;}.cls-3{fill:#2da4d3;}.cls-4{opacity:0.15;}</style></defs><g id="Objects"><path class="cls-1" d="M1800.81,1064.27a756.4,756.4,0,0,1-18.58,166.67c-75.8,334.62-375,584.41-732.51,584.41-194.18,0-371.17-73.71-504.46-194.66a748.35,748.35,0,0,1-223.08-369.21q-7.64-29.68-12.81-60.24-5.6-32.73-8.31-66.41c-1.59-20-2.39-40.2-2.39-60.56a750.93,750.93,0,0,1,751.05-751.06A755.78,755.78,0,0,1,1151,320a745.58,745.58,0,0,1,205.87,58.68,754,754,0,0,1,324.58,279.24A746.51,746.51,0,0,1,1783.66,904q4.68,21.38,8.06,43.17,4.48,28.64,6.77,58T1800.81,1064.27Z"/><path class="cls-2" d="M1548,502.29c-12.21,84.45-36,166.26-94.2,226.4-51.63,53.34-123.32,81.56-193.37,106.08A3609.15,3609.15,0,0,1,872.13,946.71c-106.51,24.34-215.73,43.95-324.55,34.44-82-7.2-164.46-32.58-231.27-79.5A750.37,750.37,0,0,1,506.82,545.28c113.63,9.49,254.5,10.67,385.32-17.75,86.47-18.78,279.42-128.35,372.41-183.15A748.8,748.8,0,0,1,1548,502.29Z"/><path class="cls-3" d="M1356.91,378.69c-1.34,2.34-3.89,4.2-4.1,6.84C1343.39,502,1168.22,597,1065.69,632.47c-217,75.14-481.79,123.79-655.63,38A754.62,754.62,0,0,1,611.74,454.08C733.83,464.75,855.06,476.81,966,430c65.55-27.67,123.48-74.69,185-110A745.58,745.58,0,0,1,1356.91,378.69Z"/><path class="cls-3" d="M1798.49,1005.14c-22.91,35.59-56.44,64.59-91.45,89.11-114.92,80.5-251.5,123.55-387.26,159-144.8,37.78-291.4,68.21-437.91,98.65-125.76,26.1-254.37,52.33-381.72,35.64a574.3,574.3,0,0,1-146-39.39,745.1,745.1,0,0,1-44.75-156.88q-5.6-32.73-8.31-66.41A971.12,971.12,0,0,0,686,1172.71c106.4-8.35,210.57-34.21,314.15-60,94.25-23.44,188.62-46.93,280.81-77.49,104.64-34.71,208.76-80.12,288-156.72,60.46-58.45,104.47-138.07,112.5-220.59a746.37,746.37,0,0,1,117,347.21Z"/><path class="cls-2" d="M1800.81,1064.27a756.4,756.4,0,0,1-18.58,166.67c-55,79.09-103.16,167.37-185,215.07-117.93,68.78-270.6,33.36-398.56,81-51.43,19.13-97.12,51.1-147.79,72.12-97.72,40.5-207.17,37.91-312.92,34.66-64.32-2-129.14-4-192.7-13.09a748.35,748.35,0,0,1-223.08-369.21c74.79,47.83,165.89,72.47,255.33,76.15,133.49,5.43,265.14-30.39,392-72.35s252.49-90.55,384.34-112.12c76-12.41,154.21-15.93,226.86-41.36,83.47-29.22,154.38-86,211-154.64q4.48,28.64,6.77,58T1800.81,1064.27Z"/><path class="cls-3" d="M1643.75,1523.93c-137.37,177.31-352.37,291.42-594,291.42a747.65,747.65,0,0,1-356.29-89.74C1018,1764,1351.75,1693.59,1643.75,1523.93Z"/><g class="cls-4"><path d="M1800.81,1064.29c0,414.8-336.26,751.06-751.09,751.06-239.79,0-453.36-112.4-590.85-287.37A748,748,0,0,0,922.4,1688c414.8,0,751.08-336.26,751.08-751.09a747.85,747.85,0,0,0-160.12-463.6C1688.38,610.86,1800.81,824.45,1800.81,1064.29Z"/></g></g></svg>